<svg width="38" height="38" viewBox="0 0 38 38" fill="none" xmlns="http://www.w3.org/2000/svg">
<path d="M7.6 30.4H3.8C2.79218 30.4 1.82563 29.9996 1.11299 29.287C0.400356 28.5744 0 27.6078 0 26.6L0 13.9333C0 12.9255 0.400356 11.959 1.11299 11.2463C1.82563 10.5337 2.79218 10.1333 3.8 10.1333H20.2667V7.6H17.7333V5.06667H15.2V7.6H10.1333V3.8C10.1333 2.79218 10.5337 1.82563 11.2463 1.11299C11.959 0.400356 12.9255 0 13.9333 0L24.0667 0C25.0745 0 26.041 0.400356 26.7537 1.11299C27.4663 1.82563 27.8667 2.79218 27.8667 3.8V16.4667C27.8667 16.8026 27.7332 17.1248 27.4957 17.3623C27.2581 17.5999 26.9359 17.7333 26.6 17.7333H11.4C10.3922 17.7333 9.42563 18.1337 8.71299 18.8463C8.00036 19.559 7.6 20.5255 7.6 21.5333V30.4Z" fill="#0367C4"/>
<path d="M30.4 7.6V16.4667C30.4 17.4745 29.9996 18.441 29.287 19.1537C28.5744 19.8663 27.6078 20.2667 26.6 20.2667H11.4C11.0641 20.2667 10.7419 20.4001 10.5043 20.6377C10.2668 20.8752 10.1333 21.1974 10.1333 21.5333V34.2C10.1333 35.2078 10.5337 36.1744 11.2463 36.887C11.959 37.5996 12.9255 38 13.9333 38H24.0667C25.0745 38 26.041 37.5996 26.7537 36.887C27.4663 36.1744 27.8667 35.2078 27.8667 34.2V30.4H22.8V32.9333H20.2667V30.4H17.7333V27.8667H34.2C35.2078 27.8667 36.1744 27.4663 36.887 26.7537C37.5996 26.041 38 25.0745 38 24.0667V11.4C38 10.3922 37.5996 9.42563 36.887 8.71299C36.1744 8.00036 35.2078 7.6 34.2 7.6H30.4Z" fill="#EFF326"/>
</svg>
