<svg width="23" height="23" viewBox="0 0 23 23" fill="none" xmlns="http://www.w3.org/2000/svg">
<path d="M6.89549 0.55426H16.1213C19.6359 0.55426 22.4915 3.40987 22.4915 6.92448V16.1503C22.4915 17.8398 21.8204 19.4601 20.6257 20.6547C19.4311 21.8494 17.8108 22.5205 16.1213 22.5205H6.89549C3.38088 22.5205 0.525269 19.6649 0.525269 16.1503V6.92448C0.525269 5.23499 1.19641 3.6147 2.39106 2.42005C3.58571 1.22541 5.206 0.55426 6.89549 0.55426ZM6.67582 2.75089C5.62718 2.75089 4.62148 3.16746 3.87997 3.90897C3.13847 4.65047 2.72189 5.65617 2.72189 6.70481V16.37C2.72189 18.5556 4.49018 20.3239 6.67582 20.3239H16.341C17.3896 20.3239 18.3953 19.9073 19.1368 19.1658C19.8783 18.4243 20.2949 17.4186 20.2949 16.37V6.70481C20.2949 4.51917 18.5266 2.75089 16.341 2.75089H6.67582ZM17.2745 4.39836C17.6387 4.39836 17.9879 4.543 18.2453 4.80047C18.5028 5.05793 18.6474 5.40713 18.6474 5.77125C18.6474 6.13536 18.5028 6.48456 18.2453 6.74203C17.9879 6.9995 17.6387 7.14414 17.2745 7.14414C16.9104 7.14414 16.5612 6.9995 16.3038 6.74203C16.0463 6.48456 15.9017 6.13536 15.9017 5.77125C15.9017 5.40713 16.0463 5.05793 16.3038 4.80047C16.5612 4.543 16.9104 4.39836 17.2745 4.39836ZM11.5084 6.04583C12.9649 6.04583 14.3617 6.6244 15.3915 7.65427C16.4214 8.68414 17 10.0809 17 11.5374C17 12.9938 16.4214 14.3906 15.3915 15.4205C14.3617 16.4504 12.9649 17.029 11.5084 17.029C10.0519 17.029 8.65515 16.4504 7.62528 15.4205C6.59541 14.3906 6.01683 12.9938 6.01683 11.5374C6.01683 10.0809 6.59541 8.68414 7.62528 7.65427C8.65515 6.6244 10.0519 6.04583 11.5084 6.04583ZM11.5084 8.24245C10.6345 8.24245 9.79645 8.5896 9.17853 9.20752C8.56061 9.82544 8.21346 10.6635 8.21346 11.5374C8.21346 12.4113 8.56061 13.2493 9.17853 13.8673C9.79645 14.4852 10.6345 14.8323 11.5084 14.8323C12.3823 14.8323 13.2204 14.4852 13.8383 13.8673C14.4562 13.2493 14.8033 12.4113 14.8033 11.5374C14.8033 10.6635 14.4562 9.82544 13.8383 9.20752C13.2204 8.5896 12.3823 8.24245 11.5084 8.24245Z" fill="#ED03B9"/>
</svg>
