<svg width="219" height="58" viewBox="0 0 219 58" fill="none" xmlns="http://www.w3.org/2000/svg">
<path d="M23.8839 24.6877C23.8839 26.3501 23.4942 27.8697 22.715 29.2463C21.9617 30.597 20.8058 31.688 19.2474 32.5192C17.7148 33.3244 15.8317 33.727 13.5978 33.727H9.81849V43H2.18189V15.5316H13.5978C15.8057 15.5316 17.6759 15.9212 19.2084 16.7005C20.7669 17.4797 21.9357 18.5577 22.715 19.9344C23.4942 21.311 23.8839 22.8955 23.8839 24.6877ZM12.8575 27.6489C15.0135 27.6489 16.0914 26.6618 16.0914 24.6877C16.0914 22.6877 15.0135 21.6876 12.8575 21.6876H9.81849V27.6489H12.8575ZM37.121 43.2727C34.9391 43.2727 32.978 42.8182 31.2377 41.9091C29.5233 40.9999 28.1726 39.7012 27.1856 38.0128C26.1986 36.3245 25.705 34.3374 25.705 32.0516C25.705 29.7918 26.1986 27.8177 27.1856 26.1293C28.1986 24.441 29.5623 23.1422 31.2766 22.2331C33.017 21.324 34.9781 20.8694 37.1599 20.8694C39.3418 20.8694 41.2899 21.324 43.0043 22.2331C44.7446 23.1422 46.1083 24.441 47.0953 26.1293C48.1083 27.8177 48.6148 29.7918 48.6148 32.0516C48.6148 34.3114 48.1083 36.2985 47.0953 38.0128C46.1083 39.7012 44.7446 40.9999 43.0043 41.9091C41.264 42.8182 39.3029 43.2727 37.121 43.2727ZM37.121 36.6492C38.1859 36.6492 39.0691 36.2595 39.7704 35.4803C40.4977 34.6751 40.8614 33.5322 40.8614 32.0516C40.8614 30.571 40.4977 29.4411 39.7704 28.6619C39.0691 27.8826 38.1989 27.493 37.1599 27.493C36.1209 27.493 35.2508 27.8826 34.5495 28.6619C33.8481 29.4411 33.4975 30.571 33.4975 32.0516C33.4975 33.5581 33.8352 34.701 34.5105 35.4803C35.1859 36.2595 36.056 36.6492 37.121 36.6492ZM59.3584 24.9994C60.2155 23.7526 61.2545 22.7656 62.4754 22.0383C63.6962 21.311 65.0079 20.9474 66.4105 20.9474V29.0905H64.2676C62.6052 29.0905 61.3714 29.4152 60.5662 30.0645C59.761 30.7139 59.3584 31.8438 59.3584 33.4542V43H51.7218V21.1422H59.3584V24.9994ZM82.0448 36.4933V43H78.733C73.1484 43 70.3561 40.2337 70.3561 34.701V27.493H67.6677V21.1422H70.3561V15.8433H78.0316V21.1422H82.0058V27.493H78.0316V34.8179C78.0316 35.4153 78.1615 35.8439 78.4213 36.1037C78.707 36.3634 79.1745 36.4933 79.8239 36.4933H82.0448ZM84.3006 32.0516C84.3006 29.7918 84.7032 27.8177 85.5084 26.1293C86.3396 24.441 87.4565 23.1422 88.8592 22.2331C90.2878 21.324 91.8723 20.8694 93.6126 20.8694C95.1191 20.8694 96.4179 21.1682 97.5088 21.7656C98.5997 22.363 99.4439 23.1682 100.041 24.1812V21.1422H107.678V43H100.041V39.9609C99.4439 40.974 98.5868 41.7792 97.4698 42.3766C96.3789 42.974 95.0931 43.2727 93.6126 43.2727C91.8723 43.2727 90.2878 42.8182 88.8592 41.9091C87.4565 40.9999 86.3396 39.7012 85.5084 38.0128C84.7032 36.2985 84.3006 34.3114 84.3006 32.0516ZM100.041 32.0516C100.041 30.649 99.6517 29.545 98.8725 28.7398C98.1192 27.9346 97.1841 27.532 96.0672 27.532C94.9243 27.532 93.9762 27.9346 93.223 28.7398C92.4697 29.5191 92.0931 30.623 92.0931 32.0516C92.0931 33.4542 92.4697 34.5712 93.223 35.4024C93.9762 36.2076 94.9243 36.6102 96.0672 36.6102C97.1841 36.6102 98.1192 36.2076 98.8725 35.4024C99.6517 34.5971 100.041 33.4802 100.041 32.0516Z" fill="white"/>
<path d="M140.538 27.493H137.109V43H129.433V27.493H127.057V21.1422H129.433V20.9474C129.433 18.1421 130.252 15.9992 131.888 14.5186C133.55 13.0121 135.927 12.2588 139.018 12.2588C139.641 12.2588 140.122 12.2718 140.46 12.2977V18.8044C140.252 18.7785 139.966 18.7655 139.603 18.7655C138.771 18.7655 138.161 18.9603 137.771 19.3499C137.382 19.7136 137.161 20.311 137.109 21.1422H140.538V27.493ZM153.436 43.2727C151.254 43.2727 149.293 42.8182 147.553 41.9091C145.838 40.9999 144.488 39.7012 143.501 38.0128C142.514 36.3245 142.02 34.3374 142.02 32.0516C142.02 29.7918 142.514 27.8177 143.501 26.1293C144.514 24.441 145.877 23.1422 147.592 22.2331C149.332 21.324 151.293 20.8694 153.475 20.8694C155.657 20.8694 157.605 21.324 159.319 22.2331C161.06 23.1422 162.423 24.441 163.41 26.1293C164.423 27.8177 164.93 29.7918 164.93 32.0516C164.93 34.3114 164.423 36.2985 163.41 38.0128C162.423 39.7012 161.06 40.9999 159.319 41.9091C157.579 42.8182 155.618 43.2727 153.436 43.2727ZM153.436 36.6492C154.501 36.6492 155.384 36.2595 156.085 35.4803C156.813 34.6751 157.176 33.5322 157.176 32.0516C157.176 30.571 156.813 29.4411 156.085 28.6619C155.384 27.8826 154.514 27.493 153.475 27.493C152.436 27.493 151.566 27.8826 150.864 28.6619C150.163 29.4411 149.812 30.571 149.812 32.0516C149.812 33.5581 150.15 34.701 150.825 35.4803C151.501 36.2595 152.371 36.6492 153.436 36.6492ZM175.673 14.1679V43H168.037V14.1679H175.673ZM183.879 19.1161C182.529 19.1161 181.438 18.7525 180.607 18.0252C179.801 17.2719 179.399 16.3368 179.399 15.2199C179.399 14.077 179.801 13.1289 180.607 12.3757C181.438 11.6224 182.529 11.2458 183.879 11.2458C185.204 11.2458 186.269 11.6224 187.074 12.3757C187.906 13.1289 188.321 14.077 188.321 15.2199C188.321 16.3368 187.906 17.2719 187.074 18.0252C186.269 18.7525 185.204 19.1161 183.879 19.1161ZM187.659 21.1422V43H180.022V21.1422H187.659ZM202.177 43.2727C199.995 43.2727 198.034 42.8182 196.294 41.9091C194.579 40.9999 193.228 39.7012 192.241 38.0128C191.254 36.3245 190.761 34.3374 190.761 32.0516C190.761 29.7918 191.254 27.8177 192.241 26.1293C193.254 24.441 194.618 23.1422 196.332 22.2331C198.073 21.324 200.034 20.8694 202.216 20.8694C204.398 20.8694 206.346 21.324 208.06 22.2331C209.8 23.1422 211.164 24.441 212.151 26.1293C213.164 27.8177 213.671 29.7918 213.671 32.0516C213.671 34.3114 213.164 36.2985 212.151 38.0128C211.164 39.7012 209.8 40.9999 208.06 41.9091C206.32 42.8182 204.359 43.2727 202.177 43.2727ZM202.177 36.6492C203.242 36.6492 204.125 36.2595 204.826 35.4803C205.554 34.6751 205.917 33.5322 205.917 32.0516C205.917 30.571 205.554 29.4411 204.826 28.6619C204.125 27.8826 203.255 27.493 202.216 27.493C201.177 27.493 200.307 27.8826 199.605 28.6619C198.904 29.4411 198.553 30.571 198.553 32.0516C198.553 33.5581 198.891 34.701 199.566 35.4803C200.242 36.2595 201.112 36.6492 202.177 36.6492Z" fill="white"/>
<circle cx="118.214" cy="35.6159" r="6.82007" fill="#FAF002"/>
<rect x="2.27344" y="44.7094" width="105.332" height="3.78893" fill="#50B5EF"/>
<rect x="215.211" y="42.436" width="27.2803" height="3.78893" transform="rotate(-90 215.211 42.436)" fill="#50B5EF"/>
<rect x="190.962" y="15.1557" width="22.7336" height="3.78893" fill="#F97348"/>
</svg>
