<svg width="22" height="25" viewBox="0 0 22 25" fill="none" xmlns="http://www.w3.org/2000/svg">
<g clip-path="url(#clip0_4_188)">
<path d="M16.279 8.82917C17.8817 9.95754 19.8451 10.6215 21.9657 10.6215V6.60263C21.5643 6.60279 21.164 6.56152 20.7714 6.47952V9.64292C18.6511 9.64292 16.6879 8.97909 15.0849 7.85081V16.0521C15.0849 20.1549 11.7079 23.4806 7.54257 23.4806C5.98837 23.4806 4.54374 23.0178 3.34375 22.2241C4.71338 23.6034 6.62342 24.459 8.73647 24.459C12.9022 24.459 16.2792 21.1334 16.2792 17.0304V8.82917H16.279ZM17.7523 4.77467C16.9332 3.89337 16.3954 2.75444 16.279 1.49527V0.978394H15.1474C15.4322 2.57874 16.404 3.94596 17.7523 4.77467ZM5.97833 19.0759C5.52067 18.485 5.2733 17.762 5.27446 17.0187C5.27446 15.1423 6.81905 13.6208 8.72471 13.6208C9.0798 13.6206 9.43279 13.6743 9.77128 13.78V9.67133C9.37572 9.61797 8.97655 9.59523 8.57756 9.6036V12.8016C8.23889 12.6958 7.88572 12.6422 7.53047 12.6424C5.6249 12.6424 4.08039 14.1637 4.08039 16.0404C4.08039 17.3674 4.85239 18.5162 5.97833 19.0759Z" fill="#FF004F"/>
<path d="M15.085 7.85072C16.6881 8.979 18.651 9.64283 20.7715 9.64283V6.47944C19.5879 6.2311 18.5401 5.62198 17.7523 4.77467C16.4039 3.94588 15.4323 2.57865 15.1474 0.978394H12.1749V17.0303C12.1681 18.9016 10.6262 20.4168 8.72461 20.4168C7.60416 20.4168 6.60864 19.8908 5.97823 19.0758C4.85245 18.5162 4.08037 17.3673 4.08037 16.0405C4.08037 14.164 5.62488 12.6425 7.53045 12.6425C7.89555 12.6425 8.24744 12.6985 8.57754 12.8017V9.60368C4.48529 9.68697 1.19421 12.9802 1.19421 17.0303C1.19421 19.0522 2.01374 20.885 3.3439 22.2243C4.5439 23.0178 5.98844 23.4808 7.54272 23.4808C11.7082 23.4808 15.085 20.1548 15.085 16.0521L15.085 7.85072Z" fill="white"/>
<path d="M20.7714 6.47933V5.62415C19.7041 5.62568 18.6579 5.3313 17.7523 4.77465C18.5539 5.63896 19.6094 6.23482 20.7714 6.47933ZM15.1473 0.978283C15.1202 0.825374 15.0993 0.671445 15.0848 0.516875V0H10.9804V16.052C10.9739 17.9232 9.43194 19.4384 7.53031 19.4384C6.99122 19.4392 6.45949 19.315 5.97808 19.0759C6.6085 19.8908 7.60402 20.4167 8.72447 20.4167C10.6259 20.4167 12.168 18.9017 12.1747 17.0303V0.978367L15.1473 0.978283ZM8.57766 9.60357V8.69302C8.23468 8.64688 7.88891 8.62377 7.54275 8.62385C3.37688 8.62385 0 11.9497 0 16.052C0 18.6241 1.32716 20.8908 3.34394 22.2241C2.01377 20.8849 1.19424 19.052 1.19424 17.0302C1.19424 12.9801 4.48524 9.68686 8.57766 9.60357Z" fill="#00F2EA"/>
</g>
<defs>
<clipPath id="clip0_4_188">
<rect width="21.9663" height="24.5205" fill="white"/>
</clipPath>
</defs>
</svg>
