<svg width="38" height="38" viewBox="0 0 38 38" fill="none" xmlns="http://www.w3.org/2000/svg">
<path d="M0 0V38H38V0H0ZM20.6801 29.6359C20.6801 33.3341 18.5087 35.0224 15.3452 35.0224C12.4871 35.0224 10.8327 33.5472 9.9845 31.7571L12.8942 30.001C13.4547 30.9931 13.9636 31.8331 15.1932 31.8331C16.3631 31.8331 17.1095 31.3744 17.1095 29.5857V17.4474H20.6801V29.6359ZM29.127 35.0224C25.8101 35.0224 23.6645 33.4454 22.6209 31.3744L25.5306 29.6956C26.2946 30.9429 27.2949 31.8671 29.051 31.8671C30.5262 31.8671 31.4776 31.1288 31.4776 30.1028C31.4776 28.8814 30.5099 28.4484 28.8732 27.7278L27.9829 27.3464C25.4044 26.2526 23.6998 24.8696 23.6998 21.9599C23.6998 19.2796 25.7436 17.2439 28.9248 17.2439C31.198 17.2439 32.8266 18.0324 33.9978 20.102L31.2156 21.8839C30.6049 20.7901 29.9426 20.3571 28.9166 20.3571C27.8744 20.3571 27.2121 21.0194 27.2121 21.8839C27.2121 22.9534 27.8744 23.3849 29.4093 24.0554L30.2996 24.4367C33.3369 25.7341 35.0414 27.0669 35.0414 30.0512C35.0414 33.2581 32.5131 35.0211 29.1284 35.0211L29.127 35.0224Z" fill="#FEF300"/>
</svg>
