<svg width="22" height="23" viewBox="0 0 22 23" fill="none" xmlns="http://www.w3.org/2000/svg">
<path d="M18.782 3.75041C17.77 2.73329 16.5646 1.92685 15.2361 1.37811C13.9076 0.82938 12.4826 0.54934 11.0441 0.554326C5.01721 0.554326 0.105152 5.4418 0.105152 11.4386C0.105152 13.3606 0.612915 15.2277 1.56221 16.8752L0.0168457 22.5205L5.81197 21.0049C7.41252 21.8725 9.21177 22.3338 11.0441 22.3338C17.0711 22.3338 21.9831 17.4463 21.9831 11.4496C21.9831 8.53904 20.8462 5.80425 18.782 3.75041ZM11.0441 20.4887C9.41046 20.4887 7.8099 20.0493 6.40804 19.2256L6.07689 19.0279L2.63293 19.9285L3.54911 16.5897L3.32834 16.2492C2.42071 14.8071 1.93877 13.1401 1.93751 11.4386C1.93751 6.45225 6.02169 2.3885 11.0331 2.3885C13.4615 2.3885 15.7465 3.33305 17.4574 5.04641C18.3046 5.88548 18.9759 6.88352 19.4326 7.98266C19.8892 9.08181 20.1221 10.2602 20.1176 11.4496C20.1397 16.4359 16.0555 20.4887 11.0441 20.4887ZM16.0335 13.7231C15.7575 13.5913 14.4108 12.9323 14.168 12.8334C13.9141 12.7456 13.7375 12.7016 13.5498 12.9652C13.3622 13.2398 12.8434 13.8549 12.6888 14.0306C12.5343 14.2173 12.3687 14.2393 12.0928 14.0965C11.8168 13.9647 10.9337 13.6681 9.89614 12.7456C9.07931 12.0207 8.53843 11.1311 8.37286 10.8565C8.21832 10.5819 8.35078 10.4391 8.49428 10.2963C8.6157 10.1755 8.77024 9.97782 8.9027 9.82406C9.03516 9.6703 9.09035 9.54948 9.17865 9.37375C9.26696 9.18704 9.22281 9.03328 9.15658 8.90148C9.09035 8.76968 8.53843 7.42975 8.31766 6.88059C8.0969 6.3534 7.86509 6.4193 7.69952 6.40832H7.16968C6.98203 6.40832 6.69503 6.47422 6.44115 6.74879C6.19831 7.02337 5.49185 7.68236 5.49185 9.0223C5.49185 10.3622 6.47427 11.6582 6.60673 11.834C6.73918 12.0207 8.53843 14.7665 11.2759 15.9416C11.9272 16.2272 12.435 16.392 12.8323 16.5128C13.4836 16.7214 14.0797 16.6885 14.5543 16.6226C15.0842 16.5457 16.177 15.9636 16.3977 15.3266C16.6295 14.6896 16.6295 14.1514 16.5523 14.0306C16.475 13.9098 16.3094 13.8549 16.0335 13.7231Z" fill="#11BC2D"/>
</svg>
